<svg width="80" height="80" viewBox="0 0 80 80" fill="none" xmlns="http://www.w3.org/2000/svg">
<path d="M1.41421 40L40 1.41421L78.5858 40L40 78.5858L1.41421 40Z" stroke="#33CC99" stroke-width="2"/>
<path d="M30.4297 56H38.0664C39.3294 56 40.5143 55.8438 41.6211 55.5312C42.7409 55.2188 43.763 54.7695 44.6875 54.1836C45.4818 53.6888 46.2109 53.0768 46.875 52.3477C47.5391 51.6055 48.1185 50.7982 48.6133 49.9258C49.1341 48.9492 49.5378 47.875 49.8242 46.7031C50.1107 45.5312 50.2539 44.2878 50.2539 42.9727V40.6289C50.2539 39.2617 50.0977 37.9727 49.7852 36.7617C49.4857 35.5508 49.056 34.444 48.4961 33.4414C48.0143 32.6211 47.4479 31.8659 46.7969 31.1758C46.1589 30.4727 45.4297 29.8802 44.6094 29.3984C43.6719 28.8125 42.6302 28.3633 41.4844 28.0508C40.3385 27.7253 39.1081 27.5625 37.793 27.5625H30.4297V56ZM35.957 32.0156H37.793C38.457 32.0156 39.069 32.0938 39.6289 32.25C40.2018 32.3932 40.7227 32.6016 41.1914 32.875C41.8034 33.2396 42.3372 33.7083 42.793 34.2812C43.2617 34.8542 43.6393 35.5052 43.9258 36.2344C44.1602 36.8464 44.3359 37.5234 44.4531 38.2656C44.5833 38.9948 44.6484 39.7695 44.6484 40.5898V42.9727C44.6484 43.8451 44.5833 44.6589 44.4531 45.4141C44.3359 46.1562 44.1602 46.8333 43.9258 47.4453C43.6393 48.1484 43.2943 48.7669 42.8906 49.3008C42.5 49.8216 42.0573 50.2513 41.5625 50.5898C41.0807 50.9154 40.5469 51.1628 39.9609 51.332C39.375 51.5013 38.7435 51.5859 38.0664 51.5859H35.957V32.0156Z" fill="#33CC99"/>
</svg>
