<?xml version="1.0" standalone="no"?>
<!DOCTYPE svg PUBLIC "-//W3C//DTD SVG 20010904//EN"
 "http://www.w3.org/TR/2001/REC-SVG-20010904/DTD/svg10.dtd">
<svg version="1.0" xmlns="http://www.w3.org/2000/svg"
 width="700.000000pt" height="700.000000pt" viewBox="0 0 700.000000 700.000000"
 preserveAspectRatio="xMidYMid meet">
<metadata>
Created by potrace 1.14, written by Peter Selinger 2001-2017
</metadata>
<g transform="translate(0.000000,700.000000) scale(0.100000,-0.100000)"
fill="#000000" stroke="none">
<path d="M1753 5254 c-959 -959 -1743 -1748 -1743 -1754 0 -6 785 -795 1745
-1755 l1745 -1745 877 878 c483 482 1271 1270 1751 1749 l872 873 -1750 1750
c-962 962 -1751 1750 -1752 1749 -2 0 -787 -786 -1745 -1745z m3376 -129
l1625 -1625 -1627 -1627 -1627 -1627 -1627 1627 -1627 1627 1625 1625 c893
893 1626 1625 1629 1625 3 0 736 -732 1629 -1625z"/>
<path d="M2667 4583 c-2 -4 -4 -565 -4 -1246 l0 -1237 386 1 c260 1 414 6 471
14 444 69 771 404 856 878 19 105 26 470 12 602 -15 150 -60 311 -119 428 -30
58 -99 168 -123 193 -205 220 -377 313 -660 359 -89 14 -811 21 -819 8z m813
-408 c118 -36 221 -110 287 -206 110 -161 142 -313 137 -663 -3 -289 -22 -388
-102 -541 -49 -93 -138 -183 -222 -222 -86 -41 -152 -54 -303 -56 -105 -2
-126 0 -129 13 -3 13 -2 1631 1 1683 1 17 10 18 139 13 84 -3 158 -11 192 -21z"/>
</g>
</svg>
