<svg width="20" height="21" viewBox="0 0 20 21" fill="none" xmlns="http://www.w3.org/2000/svg">
<path d="M19.6094 6.75L10.4688 0.65625C10.1562 0.460938 9.80469 0.460938 9.49219 0.65625L0.351562 6.75C0.117188 6.90625 0 7.17969 0 7.45312V13.5469C0 13.8594 0.117188 14.1328 0.351562 14.2891L9.49219 20.3828C9.80469 20.5781 10.1562 20.5781 10.4688 20.3828L19.6094 14.2891C19.8438 14.1328 20 13.8594 20 13.5469V7.45312C20 7.17969 19.8438 6.90625 19.6094 6.75ZM10.8594 3L17.5781 7.45312L14.5703 9.48438L10.8594 6.98438V3ZM9.14062 3V6.98438L5.39062 9.48438L2.38281 7.45312L9.14062 3ZM1.71875 9.09375L3.86719 10.5L1.71875 11.9453V9.09375ZM9.14062 18.0391L2.38281 13.5469L5.39062 11.5547L9.14062 14.0547V18.0391ZM10 12.5312L6.95312 10.5L10 8.46875L13.0078 10.5L10 12.5312ZM10.8594 18.0391V14.0547L14.5703 11.5547L17.5781 13.5469L10.8594 18.0391ZM18.2812 11.9453L16.0938 10.5L18.2812 9.09375V11.9453Z" fill="#AEAEAE"/>
</svg>
