<svg width="80" height="80" viewBox="0 0 80 80" fill="none" xmlns="http://www.w3.org/2000/svg">
<path d="M2.82843 40L40 2.82843L77.1716 40L40 77.1716L2.82843 40Z" stroke="#33CC99" stroke-width="4"/>
<path d="M40.2901 55H29.9776V25.9091H40.3754C43.3015 25.9091 45.8204 26.4915 47.9322 27.6562C50.0439 28.8116 51.668 30.4735 52.8043 32.642C53.9502 34.8106 54.5231 37.4053 54.5231 40.4261C54.5231 43.4564 53.9502 46.0606 52.8043 48.2386C51.668 50.4167 50.0344 52.0881 47.9038 53.2528C45.7826 54.4176 43.2447 55 40.2901 55ZM36.1282 49.7301H40.0344C41.8526 49.7301 43.382 49.4081 44.6225 48.7642C45.8725 48.1108 46.81 47.1023 47.435 45.7386C48.0695 44.3655 48.3867 42.5947 48.3867 40.4261C48.3867 38.2765 48.0695 36.5199 47.435 35.1562C46.81 33.7926 45.8772 32.7888 44.6367 32.1449C43.3962 31.5009 41.8668 31.179 40.0487 31.179H36.1282V49.7301Z" fill="#33CC99"/>
</svg>
