<?xml version="1.0" standalone="no"?>
<!DOCTYPE svg PUBLIC "-//W3C//DTD SVG 20010904//EN"
 "http://www.w3.org/TR/2001/REC-SVG-20010904/DTD/svg10.dtd">
<svg version="1.0" xmlns="http://www.w3.org/2000/svg"
 width="700.000000pt" height="700.000000pt" viewBox="0 0 700.000000 700.000000"
 preserveAspectRatio="xMidYMid meet">
<metadata>
Created by potrace 1.14, written by Peter Selinger 2001-2017
</metadata>
<g transform="translate(0.000000,700.000000) scale(0.100000,-0.100000)"
fill="#000000" stroke="none">
<path d="M1753 5254 c-959 -959 -1743 -1748 -1743 -1754 0 -6 785 -795 1745
-1755 l1745 -1745 877 878 c483 482 1271 1270 1751 1749 l872 873 -1750 1750
c-962 962 -1751 1750 -1752 1749 -2 0 -787 -786 -1745 -1745z m3252 -254
l1500 -1500 -1503 -1503 -1502 -1502 -1502 1502 -1503 1503 1500 1500 c825
825 1502 1500 1505 1500 3 0 680 -675 1505 -1500z"/>
<path d="M2630 4725 c-4 -5 -7 -578 -7 -1272 l0 -1263 146 -1 c395 -2 872 1
919 6 88 8 233 35 269 50 18 8 33 12 33 10 0 -2 33 10 73 26 285 118 475 304
596 585 34 79 76 222 87 294 19 127 22 178 20 335 -5 262 -40 426 -130 613
-111 226 -262 381 -473 486 -82 41 -188 82 -230 90 -10 2 -36 9 -58 14 -113
29 -209 34 -750 35 -315 1 -489 -2 -495 -8z m1079 -470 c63 -13 170 -53 218
-81 93 -54 161 -130 213 -239 26 -55 50 -111 53 -125 3 -14 8 -36 11 -50 23
-99 28 -155 28 -298 0 -73 -3 -152 -7 -175 -4 -23 -9 -55 -11 -72 -39 -242
-177 -436 -361 -505 -131 -49 -157 -53 -430 -57 l-262 -5 0 812 1 812 256 -5
c141 -2 272 -8 291 -12z"/>
</g>
</svg>
